<?xml version="1.0" encoding="UTF-8" standalone="no"?>
<!DOCTYPE svg PUBLIC "-//W3C//DTD SVG 1.1//EN"
"http://www.w3.org/Graphics/SVG/1.1/DTD/svg11.dtd">


<!-- Page 1 -->
<svg x="0" y="0" width="1650" height="1100" viewBox="0 0 1650 1100" version="1.1" xmlns="http://www.w3.org/2000/svg" xmlns:xlink="http://www.w3.org/1999/xlink"
style="display: block;margin-left: auto;margin-right: auto;">
<defs>
<clipPath id="c0_1"><path d="M16.7,677l0,-614.2l892.4,0l0,614.2Z" /></clipPath>
<clipPath id="c1_1"><path d="M1113.9,677l0,-614.2l343.8,0l0,614.2Z" /></clipPath>

<style type="text/css"><![CDATA[

.g1_1{
fill: none;
stroke: #000000;
stroke-width: 1.6347224;
stroke-linecap: butt;
stroke-linejoin: round;
}
.g2_1{
fill: none;
stroke: #F8766D;
stroke-width: 2.4444444;
stroke-linecap: butt;
stroke-linejoin: round;
}
.g3_1{
fill: none;
stroke: #C49A00;
stroke-width: 2.4444444;
stroke-linecap: butt;
stroke-linejoin: round;
}
.g4_1{
fill: none;
stroke: #53B400;
stroke-width: 2.4444444;
stroke-linecap: butt;
stroke-linejoin: round;
}
.g5_1{
fill: none;
stroke: #00C094;
stroke-width: 2.4444444;
stroke-linecap: butt;
stroke-linejoin: round;
}
.g6_1{
fill: none;
stroke: #00B6EB;
stroke-width: 2.4444444;
stroke-linecap: butt;
stroke-linejoin: round;
}
.g7_1{
fill: none;
stroke: #A58AFF;
stroke-width: 2.4444444;
stroke-linecap: butt;
stroke-linejoin: round;
}
.g8_1{
fill: none;
stroke: #FB61D7;
stroke-width: 2.4444444;
stroke-linecap: butt;
stroke-linejoin: round;
}
.g9_1{
fill: #F8766D;
stroke: #000000;
stroke-width: 0.32083336;
stroke-linecap: butt;
stroke-linejoin: round;
}
.g10_1{
fill: #B79F00;
stroke: #000000;
stroke-width: 0.32083336;
stroke-linecap: butt;
stroke-linejoin: round;
}
.g11_1{
fill: #00BA38;
stroke: #000000;
stroke-width: 0.32083336;
stroke-linecap: butt;
stroke-linejoin: round;
}
.g12_1{
fill: #00BFC4;
stroke: #000000;
stroke-width: 0.32083336;
stroke-linecap: butt;
stroke-linejoin: round;
}
.g13_1{
fill: #619CFF;
stroke: #000000;
stroke-width: 0.32083336;
stroke-linecap: butt;
stroke-linejoin: round;
}
.g14_1{
fill: #F564E3;
stroke: #000000;
stroke-width: 0.32083336;
stroke-linecap: butt;
stroke-linejoin: round;
}
.g15_1{
fill: none;
stroke: #762A83;
stroke-width: 3.2541668;
stroke-linecap: butt;
stroke-linejoin: round;
stroke-miterlimit: 1;
}
.g16_1{
fill: #762A83;
fill-opacity: 0.2;
}
.g17_1{
fill: #FFFFFF;
stroke: #000000;
stroke-width: 0.8097222;
stroke-linecap: round;
stroke-linejoin: round;
}
.g18_1{
fill: none;
stroke: #000000;
stroke-width: 1.1458334;
stroke-linecap: round;
stroke-linejoin: round;
}

.s1_1{
font-size: 4.89px;
font-family: Wingdings, 'Zapf Dingbats';
fill: #000000;
}
.s2_1{
font-size: 4.89px;
font-family: Wingdings, 'Zapf Dingbats';
fill: #F8766D;
}
.s3_1{
font-size: 4.89px;
font-family: Wingdings, 'Zapf Dingbats';
fill: #C49A00;
}
.s4_1{
font-size: 4.89px;
font-family: Wingdings, 'Zapf Dingbats';
fill: #53B400;
}
.s5_1{
font-size: 4.89px;
font-family: Wingdings, 'Zapf Dingbats';
fill: #00C094;
}
.s6_1{
font-size: 4.89px;
font-family: Wingdings, 'Zapf Dingbats';
fill: #00B6EB;
}
.s7_1{
font-size: 4.89px;
font-family: Wingdings, 'Zapf Dingbats';
fill: #A58AFF;
}
.s8_1{
font-size: 4.89px;
font-family: Wingdings, 'Zapf Dingbats';
fill: #FB61D7;
}
.s9_1{
font-size: 21.39px;
font-family: Helvetica, Arial, sans-serif;
fill: #000000;
}
.s10_1{
font-size: 22.92px;
font-family: Helvetica, Arial, sans-serif;
fill: #FB61D7;
}
.s11_1{
font-size: 22.92px;
font-family: Helvetica, Arial, sans-serif;
fill: #A58AFF;
}
.s12_1{
font-size: 22.92px;
font-family: Helvetica, Arial, sans-serif;
fill: #00B6EB;
}
.s13_1{
font-size: 22.92px;
font-family: Helvetica, Arial, sans-serif;
fill: #00C094;
}
.s14_1{
font-size: 22.92px;
font-family: Helvetica, Arial, sans-serif;
fill: #53B400;
}
.s15_1{
font-size: 22.92px;
font-family: Helvetica, Arial, sans-serif;
fill: #C49A00;
}
.s16_1{
font-size: 22.92px;
font-family: Helvetica, Arial, sans-serif;
fill: #F8766D;
}
.s17_1{
font-size: 18.33px;
font-family: Helvetica, Arial, sans-serif;
fill: #4D4D4D;
}
.s18_1{
font-size: 16.81px;
font-family: Helvetica, Arial, sans-serif;
fill: #000000;
}
.s19_1{
font-size: 27.50px;
font-family: Helvetica, Arial, sans-serif;
fill: #000000;
}
.s20_1{
font-size: 8.27px;
font-family: Wingdings, 'Zapf Dingbats';
fill: #762A83;
}
.s21_1{
font-size: 12.79px;
font-family: Wingdings, 'Zapf Dingbats';
fill: #762A83;
}
.s22_1{
font-size: 22.92px;
font-family: Helvetica, Arial, sans-serif;
fill: #4D4D4D;
}
.s23_1{
font-size: 38.19px;
font-style: italic;
font-family: Helvetica, Arial, sans-serif;
fill: #000000;
}
.s24_1{
font-size: 38.19px;
font-family: Helvetica, Arial, sans-serif;
fill: #000000;
}

]]></style>

</defs>
<path d="M0,0
L0,1100
L1650,1100
L1650,0 Z " 
fill="#FFFFFF" stroke="none" />
<path d="M868.5,677l-30.2,0" class="g1_1" />
<path d="M868.5,615.6l-1.4,0" class="g1_1" />
<path d="M868.5,554.2l-1.4,0" class="g1_1" />
<path d="M868.5,492.7l-4.2,0" class="g1_1" />
<path d="M868.5,431.3l-0.3,0" class="g1_1" />
<path d="M868.5,369.9l-0.3,0" class="g1_1" />
<path d="M868.5,308.5l0,0" class="g1_1" />
<path d="M868.5,247l0,0" class="g1_1" />
<path d="M868.5,185.6l-14.3,0" class="g1_1" />
<path d="M868.5,124.2l-0.1,0" class="g1_1" />
<g clip-path="url(#c0_1)">
<path d="M868.5,62.8l-0.1,0" class="g1_1" />
</g>
<path d="M868.5,308.5l0,-61.5" class="g1_1" />
<path d="M868.5,277.8l-90.6,0" class="g1_1" />
<g clip-path="url(#c0_1)">
<path d="M868.4,124.2l0,-61.4" class="g1_1" />
</g>
<path d="M868.4,93.5l-14.2,0" class="g1_1" />
<path d="M868.2,431.3l0,-61.4" class="g1_1" />
<path d="M868.2,400.6l-3.9,0" class="g1_1" />
<path d="M867.1,615.6l0,-61.4" class="g1_1" />
<path d="M867.1,584.9l-28.8,0" class="g1_1" />
<path d="M864.3,492.7l0,-92.1" class="g1_1" />
<path d="M864.3,446.7l-86.4,0" class="g1_1" />
<path d="M854.2,185.6l0,-92.1" class="g1_1" />
<path d="M854.2,139.6l-314.7,0" class="g1_1" />
<path d="M838.3,677l0,-92.1" class="g1_1" />
<path d="M838.3,630.9l-781,0" class="g1_1" />
<path d="M777.9,277.8l0,168.9" class="g1_1" />
<path d="M777.9,362.2l-238.4,0" class="g1_1" />
<path d="M539.5,139.6l0,222.6" class="g1_1" />
<path d="M539.5,250.9l-482.2,0" class="g1_1" />
<path d="M57.3,630.9l0,-380" class="g1_1" />
<text 
x="866" 
y="678" 
dx="0" 
class="s1_1"
>●</text>

<text 
x="866" 
y="617" 
dx="0" 
class="s1_1"
>●</text>

<text 
x="866" 
y="555" 
dx="0" 
class="s1_1"
>●</text>

<text 
x="866" 
y="494" 
dx="0" 
class="s1_1"
>●</text>

<text 
x="866" 
y="433" 
dx="0" 
class="s1_1"
>●</text>

<text 
x="866" 
y="371" 
dx="0" 
class="s1_1"
>●</text>

<text 
x="866" 
y="310" 
dx="0" 
class="s1_1"
>●</text>

<text 
x="866" 
y="248" 
dx="0" 
class="s1_1"
>●</text>

<text 
x="866" 
y="187" 
dx="0" 
class="s1_1"
>●</text>

<text 
x="866" 
y="125" 
dx="0" 
class="s1_1"
>●</text>

<text 
x="866" 
y="64" 
dx="0" 
class="s1_1"
>●</text>

<text 
x="866" 
y="279" 
dx="0" 
class="s1_1"
>●</text>

<text 
x="866" 
y="95" 
dx="0" 
class="s1_1"
>●</text>

<text 
x="866" 
y="402" 
dx="0" 
class="s1_1"
>●</text>

<text 
x="865" 
y="586" 
dx="0" 
class="s1_1"
>●</text>

<text 
x="862" 
y="448" 
dx="0" 
class="s1_1"
>●</text>

<text 
x="852" 
y="141" 
dx="0" 
class="s1_1"
>●</text>

<text 
x="836" 
y="632" 
dx="0" 
class="s1_1"
>●</text>

<text 
x="775" 
y="363" 
dx="0" 
class="s1_1"
>●</text>

<text 
x="537" 
y="252" 
dx="0" 
class="s1_1"
>●</text>

<text 
x="55" 
y="442" 
dx="0" 
class="s1_1"
>●</text>

<path d="M868.5,677l-1.4,0" class="g2_1" />
<path d="M868.5,615.6l-1.4,0" class="g3_1" />
<path d="M868.5,554.2l-1.4,0" class="g3_1" />
<path d="M868.5,492.7l-1.4,0" class="g4_1" />
<path d="M868.5,431.3l-0.3,0" class="g5_1" />
<path d="M868.5,369.9l-0.3,0" class="g5_1" />
<path d="M868.5,308.5l0,0" class="g6_1" />
<path d="M868.5,247l0,0" class="g6_1" />
<path d="M868.5,185.6l-1.4,0" class="g7_1" />
<path d="M868.5,124.2l-0.1,0" class="g8_1" />
<g clip-path="url(#c0_1)">
<path d="M868.5,62.8l-0.1,0" class="g8_1" />
</g>
<path d="M868.5,308.5l0,-61.5" class="g6_1" />
<path d="M868.5,277.8l-1.4,0" class="g6_1" />
<g clip-path="url(#c0_1)">
<path d="M868.4,124.2l0,-61.4" class="g8_1" />
</g>
<path d="M868.4,93.5l-1.3,0" class="g8_1" />
<path d="M868.2,431.3l0,-61.4" class="g5_1" />
<path d="M868.2,400.6l-1.1,0" class="g5_1" />
<path d="M867.1,615.6l0,-61.4" class="g3_1" />
<path d="M867.1,584.9l0,0" class="g3_1" />
<text 
x="866" 
y="678" 
dx="0" 
class="s2_1"
>●</text>

<text 
x="866" 
y="617" 
dx="0" 
class="s3_1"
>●</text>

<text 
x="866" 
y="555" 
dx="0" 
class="s3_1"
>●</text>

<text 
x="866" 
y="494" 
dx="0" 
class="s4_1"
>●</text>

<text 
x="866" 
y="433" 
dx="0" 
class="s5_1"
>●</text>

<text 
x="866" 
y="371" 
dx="0" 
class="s5_1"
>●</text>

<text 
x="866" 
y="310" 
dx="0" 
class="s6_1"
>●</text>

<text 
x="866" 
y="248" 
dx="0" 
class="s6_1"
>●</text>

<text 
x="866" 
y="187" 
dx="0" 
class="s7_1"
>●</text>

<text 
x="866" 
y="125" 
dx="0" 
class="s8_1"
>●</text>

<text 
x="866" 
y="64" 
dx="0" 
class="s8_1"
>●</text>

<text 
x="866" 
y="279" 
dx="0" 
class="s6_1"
>●</text>

<text 
x="866" 
y="95" 
dx="0" 
class="s8_1"
>●</text>

<text 
x="866" 
y="402" 
dx="0" 
class="s5_1"
>●</text>

<text 
x="865" 
y="586" 
dx="0" 
class="s3_1"
>●</text>

<text 
x="855" 
y="450" 
dx="0" 
class="s9_1"
>*</text>

<text 
x="829" 
y="143" 
dx="0,0,0" 
class="s9_1"
>***</text>

<text 
x="813" 
y="634" 
dx="0,0,0" 
class="s9_1"
>***</text>

<text 
x="752" 
y="366" 
dx="0,0,0" 
class="s9_1"
>***</text>

<text 
x="514" 
y="254" 
dx="0,0,0" 
class="s9_1"
>***</text>

<text 
x="32" 
y="444" 
dx="0,0,0" 
class="s9_1"
>***</text>

<text 
x="916" 
y="71" 
dx="0,0,0,0,0,0,0,0,0,0,0,0,0,0" 
class="s10_1"
>(Plnd): 520.59</text>

<text 
x="916" 
y="132" 
dx="0,0,0,0,0,0,0,0,0,0,0,0,0,0" 
class="s10_1"
>(Blgm): 519.91</text>

<text 
x="916" 
y="193" 
dx="0,0,0,0.6,0,0,0,0,0,0,0,0,0,0" 
class="s11_1"
>(Grmn): 513.93</text>

<text 
x="916" 
y="255" 
dx="0,0,0,0,0,0,0,0,0,0,0,0,0,0" 
class="s12_1"
>(Astr): 507.71</text>

<text 
x="916" 
y="316" 
dx="0,0,0,0,0,0,0,0,0,0,0,0,0,0" 
class="s12_1"
>(Fnln): 507.53</text>

<text 
x="916" 
y="378" 
dx="0,0,0,0.6,0,0,0,0,0,0,0,0,0,0" 
class="s13_1"
>(Frnc): 499.47</text>

<text 
x="916" 
y="439" 
dx="0,0,0,0,0,0,0,0,0,0,0,0,0,0" 
class="s13_1"
>(UntK): 498.17</text>

<text 
x="916" 
y="500" 
dx="0,0,0,0,0,0,0,0,0,0,0,0,0,0" 
class="s14_1"
>(Span): 495.99</text>

<text 
x="916" 
y="562" 
dx="0,0,0,0,0,0,0,0,0,0,0,0,0,0" 
class="s15_1"
>(Itly): 488.33</text>

<text 
x="916" 
y="623" 
dx="0,0,0,0,0,0,0,0,0,0,0,0,0,0" 
class="s15_1"
>(Dnmr): 486.19</text>

<text 
x="916" 
y="685" 
dx="0,0,0,0,0,0,0,0,0,0,0,0,0,0" 
class="s16_1"
>(Swdn): 479.15</text>

<text 
x="153" 
y="697" 
dx="0,0,0,0,0,0,0" 
class="s17_1"
>-407514</text>

<text 
x="291" 
y="697" 
dx="0,0,0,0,0,0,0" 
class="s17_1"
>-407402</text>

<text 
x="428" 
y="697" 
dx="0,0,0,0,0,0,0" 
class="s17_1"
>-407291</text>

<text 
x="565" 
y="697" 
dx="0,0,0,0,0,0,0" 
class="s17_1"
>-407180</text>

<text 
x="703" 
y="697" 
dx="0,0,0,0,0,0,0" 
class="s17_1"
>-407068</text>

<text 
x="416" 
y="718" 
dx="0,0,0,0,0,0,-0.3,0,0,0,0,0,0" 
class="s18_1"
>loglikelihood</text>

<text 
x="16" 
y="29" 
dx="0,0,0,0,0,0,0,0,0,0,0,0,0,0,0,0,0,0,0,0,0,0,0,0,0,0,0,0,0,0,0,0,0,0.4,0,0" 
class="s19_1"
>PISA 2012 - Math scores in countries</text>

<g clip-path="url(#c1_1)">
<path d="M1119.5,118.6l55.4,0l0,-55.8l-55.4,0l0,55.8Z" class="g9_1" />
</g>
<path d="M1119.5,174.5l55.4,0l0,-55.9l-55.4,0l0,55.9Z" class="g9_1" />
<path d="M1174.9,230.3l55.5,0l0,-55.8l-55.5,0l0,55.8Z" class="g10_1" />
<path d="M1230.4,286.1l55.4,0l0,-55.8l-55.4,0l0,55.8Z" class="g11_1" />
<path d="M1230.4,342l55.4,0l0,-55.9l-55.4,0l0,55.9Z" class="g11_1" />
<path d="M1285.8,397.8l55.5,0l0,-55.8l-55.5,0l0,55.8Z" class="g12_1" />
<path d="M1285.8,453.6l55.5,0l0,-55.8l-55.5,0l0,55.8Z" class="g12_1" />
<path d="M1285.8,509.5l55.5,0l0,-55.9l-55.5,0l0,55.9Z" class="g12_1" />
<path d="M1341.3,565.3l55.4,0l0,-55.8l-55.4,0l0,55.8Z" class="g13_1" />
<path d="M1341.3,621.2l55.4,0l0,-55.9l-55.4,0l0,55.9Z" class="g13_1" />
<path d="M1396.7,677l55.5,0l0,-55.8l-55.5,0l0,55.8Z" class="g14_1" />
<text 
x="1142" 
y="697" 
dx="0" 
class="s17_1"
>a</text>

<text 
x="1197" 
y="697" 
dx="0" 
class="s17_1"
>b</text>

<text 
x="1253" 
y="697" 
dx="0" 
class="s17_1"
>c</text>

<text 
x="1308" 
y="697" 
dx="0" 
class="s17_1"
>d</text>

<text 
x="1363" 
y="697" 
dx="0" 
class="s17_1"
>e</text>

<text 
x="1421" 
y="697" 
dx="0" 
class="s17_1"
>f</text>

<text 
x="1113" 
y="28" 
dx="0,-3.3,0,-0.5,-0.5,0,0,0,0,0,0,0,0,0" 
class="s19_1"
>Tukey HSD test</text>

<path d="M57.3,804.6L539.5,940.3l238.4,66.9l60.4,16.7l15.9,4.1l10.1,2.5l2.8,0.5l1.1,-0.1l0.2,-0.3l0.1,-0.3l0,-0.3" class="g15_1" />
<text 
x="863" 
y="1033" 
dx="0" 
class="s20_1"
>●</text>

<text 
x="861" 
y="1033" 
dx="0" 
class="s20_1"
>●</text>

<text 
x="850" 
y="1030" 
dx="0" 
class="s20_1"
>●</text>

<text 
x="835" 
y="1026" 
dx="0" 
class="s20_1"
>●</text>

<text 
x="774" 
y="1010" 
dx="0" 
class="s20_1"
>●</text>

<text 
x="536" 
y="943" 
dx="0" 
class="s20_1"
>●</text>

<text 
x="54" 
y="807" 
dx="0" 
class="s20_1"
>●</text>

<text 
x="862" 
y="1035" 
dx="0" 
class="s21_1"
>●</text>

<path d="M57.3,804.6L539.5,940.3l238.4,66.9l60.4,16.7l15.9,4.1l10.1,2.5l2.8,0.5l1.1,-0.1l0.2,-0.3l0.1,-0.3l0,-0.3l0,1l-0.1,0l-0.2,0l-1.1,0l-2.8,0l-10.1,0l-15.9,0l-60.4,0l-238.4,0l-482.2,0Z" class="g16_1" />
<path d="M743.6,827.7l121.6,0l-0.1,0l0.5,0l0.6,-0.1l0.5,-0.2l0.4,-0.3l0.4,-0.3l0.4,-0.4l0.3,-0.5l0.2,-0.4l0.1,-0.6l0,-0.5l0,-16.5l0,-0.5l-0.1,-0.5l-0.2,-0.5L867.9,806l-0.4,-0.4l-0.4,-0.4L866.7,805l-0.5,-0.2l-0.6,-0.1l-0.4,-0.1l-121.6,0l0.4,0.1l-0.5,-0.1l-0.6,0.1l-0.5,0.1l-0.4,0.3l-0.5,0.3l-0.4,0.3l-0.3,0.5l-0.2,0.5l-0.2,0.5l-0.1,0.5l0,0.2l0,16.5l0,-0.3l0,0.6l0.1,0.5l0.2,0.5l0.2,0.5l0.3,0.4l0.4,0.4l0.5,0.3l0.4,0.2l0.5,0.1l0.6,0.1Z" class="g17_1" />
<text 
x="746" 
y="821" 
dx="0,0,0,0,0,0,0,0,0,0,0,0,0,0,0" 
class="s18_1"
>GIC penalty = 2</text>

<text 
x="916" 
y="1038" 
dx="0,0,0,0,0,0" 
class="s22_1"
>813948</text>

<text 
x="916" 
y="1039" 
dx="0,0,0,0,0,0" 
class="s22_1"
>813943</text>

<text 
x="916" 
y="812" 
dx="0,0,0,0,0,0" 
class="s22_1"
>815245</text>

<path d="M1273.1,895.4l189.3,0l0,-44.7l-189.3,0l0,44.7Z" class="g18_1" />
<path d="M1273.1,940.2l189.3,0l0,-44.8l-189.3,0l0,44.8Z" class="g18_1" />
<path d="M1273.1,984.9l189.3,0l0,-44.7l-189.3,0l0,44.7Z" class="g18_1" />
<text 
x="1153" 
y="886" 
dx="0,0,-1,0,0,0" 
class="s23_1"
>pvalue</text>

<text 
x="1281" 
y="886" 
dx="0,0,0,0,0,0,0,0,0" 
class="s24_1"
>&lt; 2.2e-16</text>

<text 
x="1118" 
y="931" 
dx="0,0,0,0,0,0,0" 
class="s23_1"
>nGroups</text>

<text 
x="1346" 
y="931" 
dx="0,0" 
class="s24_1"
>11</text>

<text 
x="1173" 
y="976" 
dx="0,0,0,0" 
class="s23_1"
>nObs</text>

<text 
x="1314" 
y="976" 
dx="0,0,0,0,0" 
class="s24_1"
>68472</text>


</svg>
